<?xml version="1.0" encoding="UTF-8" standalone="no"?>
<svg
   xmlns:dc="http://purl.org/dc/elements/1.1/"
   xmlns:cc="http://creativecommons.org/ns#"
   xmlns:rdf="http://www.w3.org/1999/02/22-rdf-syntax-ns#"
   xmlns:svg="http://www.w3.org/2000/svg"
   xmlns="http://www.w3.org/2000/svg"
   xmlns:sodipodi="http://sodipodi.sourceforge.net/DTD/sodipodi-0.dtd"
   xmlns:inkscape="http://www.inkscape.org/namespaces/inkscape"
   version="1.1"
   id="svg2"
   viewBox="0 0 54 32"
   inkscape:version="0.92.4 5da689c313, 2019-01-14"
   sodipodi:docname="octopi.svg">
  <sodipodi:namedview
     pagecolor="#ffffff"
     bordercolor="#666666"
     borderopacity="1"
     objecttolerance="10"
     gridtolerance="10"
     guidetolerance="10"
     inkscape:pageopacity="0"
     inkscape:pageshadow="2"
     inkscape:window-width="1874"
     inkscape:window-height="918"
     id="namedview12"
     showgrid="true"
     inkscape:zoom="6.866379"
     inkscape:cx="-56.133089"
     inkscape:cy="13.549243"
     inkscape:window-x="0"
     inkscape:window-y="30"
     inkscape:window-maximized="0"
     inkscape:current-layer="svg2">
    <inkscape:grid
       type="xygrid"
       id="grid818" />
  </sodipodi:namedview>
  <metadata
     id="metadata18">
    <rdf:RDF>
      <cc:Work
         rdf:about="">
        <dc:format>image/svg+xml</dc:format>
        <dc:type
           rdf:resource="http://purl.org/dc/dcmitype/StillImage" />
        <dc:title />
      </cc:Work>
    </rdf:RDF>
  </metadata>
  <defs
     id="defs3051">
    <style
       id="current-color-scheme"
       type="text/css">
      .ColorScheme-Text {
        color:#31363b;
      }
      </style>
    <style
       type="text/css"
       id="current-color-scheme-6">
   .ColorScheme-Text { color:#dfdfdf; } .ColorScheme-Highlight { color:#5294e2; }
  </style>
  </defs>
  <g
     id="octopi-indicator"
     transform="translate(66)">
    <rect
       ry="0"
       rx="0"
       y="8"
       x="-66"
       height="24"
       width="24"
       id="rect841"
       style="opacity:1;fill:#72879b;fill-opacity:0;stroke:none;stroke-width:0.1;stroke-linecap:square;stroke-linejoin:miter;stroke-miterlimit:4;stroke-dasharray:none;stroke-dashoffset:0;stroke-opacity:1;paint-order:fill markers stroke" />
    <path
       sodipodi:nodetypes="cccccccc"
       inkscape:connector-curvature="0"
       id="path833"
       d="m -48,18 c 0,-7 -12,-7 -12,0 v 9 c 0,2 3,2 3,0 0,2 3,2 3,0 0,2 3,2 3.051665,-0.01235 C -50.999995,29 -48,29 -48,27 Z"
       style="fill:#f9fafa;fill-opacity:0.39215687;stroke:none;stroke-width:1px;stroke-linecap:butt;stroke-linejoin:miter;stroke-opacity:1" />
  </g>
  <g
     transform="translate(42)"
     id="octopi-ok"
     inkscape:label="#octopi-ok">
    <rect
       style="opacity:1;fill:#72879b;fill-opacity:0;stroke:none;stroke-width:0.1;stroke-linecap:square;stroke-linejoin:miter;stroke-miterlimit:4;stroke-dasharray:none;stroke-dashoffset:0;stroke-opacity:1;paint-order:fill markers stroke"
       id="rect847"
       width="24"
       height="24"
       x="-66"
       y="8"
       rx="0"
       ry="0" />
    <path
       style="fill:#f9fafa;fill-opacity:1;stroke:none;stroke-width:1px;stroke-linecap:butt;stroke-linejoin:miter;stroke-opacity:1"
       d="m -48,18 c 0,-7 -12,-7 -12,0 v 9 c 0,2 3,2 3,0 0,2 3,2 3,0 0,2 3,2 3.051665,-0.01235 C -50.999995,29 -48,29 -48,27 Z"
       id="path849"
       inkscape:connector-curvature="0"
       sodipodi:nodetypes="cccccccc" />
  </g>
  <g
     transform="translate(89.948335)"
     id="octopi-error">
    <rect
       style="opacity:1;fill:#72879b;fill-opacity:0;stroke:none;stroke-width:0.1;stroke-linecap:square;stroke-linejoin:miter;stroke-miterlimit:4;stroke-dasharray:none;stroke-dashoffset:0;stroke-opacity:1;paint-order:fill markers stroke"
       id="rect853"
       width="24"
       height="24"
       x="-66"
       y="8"
       rx="0"
       ry="0" />
    <path
       style="fill:#df6c5b;fill-opacity:1;stroke:none;stroke-width:1px;stroke-linecap:butt;stroke-linejoin:miter;stroke-opacity:1"
       d="m -48,18 c 0,-7 -12,-7 -12,0 v 9 c 0,2 3,2 3,0 0,2 3,2 3,0 0,2 3,2 3.051665,-0.01235 C -50.999995,29 -48,29 -48,27 Z"
       id="path855"
       inkscape:connector-curvature="0"
       sodipodi:nodetypes="cccccccc" />
  </g>
  <g
     inkscape:label="#octopi-info"
     id="octopi-info"
     transform="translate(18)">
    <rect
       ry="0"
       rx="0"
       y="8"
       x="-66"
       height="24"
       width="24"
       id="rect859"
       style="opacity:1;fill:#72879b;fill-opacity:0;stroke:none;stroke-width:0.1;stroke-linecap:square;stroke-linejoin:miter;stroke-miterlimit:4;stroke-dasharray:none;stroke-dashoffset:0;stroke-opacity:1;paint-order:fill markers stroke" />
    <path
       style="fill:#f9fafa;fill-opacity:1;stroke:none;stroke-width:1px;stroke-linecap:butt;stroke-linejoin:miter;stroke-opacity:1"
       d="M -32.009766 10.037109 A 4.5 4.5 0 0 0 -36.509766 14.537109 A 4.5 4.5 0 0 0 -32.009766 19.037109 A 4.5 4.5 0 0 0 -27.509766 14.537109 A 4.5 4.5 0 0 0 -32.009766 10.037109 z M -37.244141 12.861328 C -39.775634 13.281309 -42 14.98803 -42 18 L -42 27 C -42 29 -39 29 -39 27 C -39 29 -36 29 -36 27 C -36 29 -33.000884 29.000631 -32.949219 26.988281 C -33.000879 29.000631 -30 29 -30 27 L -30 19.650391 C -30.623655 19.897322 -31.300832 20.037109 -32.009766 20.037109 C -35.035487 20.037109 -37.509766 17.562831 -37.509766 14.537109 C -37.509766 13.95286 -37.414806 13.390612 -37.244141 12.861328 z "
       transform="translate(-18)"
       id="path861" />
  </g>
</svg>
